# xmcd CD database file
#
# Track frame offsets:
#	150
#	14444
#	33536
#	54217
#	68224
#	83146
#	99091
#	117290
#	138538
#	153770
#	177428
#	193959
#	210365
#
# Disc length: 3008 seconds
#
# Revision: 2
# Processed by: cddbd v1.5.2PL0 Copyright (c) Steve Scherf et al.
# Submitted via: CDex 1.70beta2
#
DISCID=a80bbe0d
DTITLE=Sophie Milman - Make Someone Happy
DYEAR=2007
DGENRE=Jazz
TTITLE0=People Will Say We’re In Love
TTITLE1=Something in the Air Between Us
TTITLE2=Rocket Love
TTITLE3=So Long, You Fool
TTITLE4=Matchmaker, Matchmaker
TTITLE5=Like Someone in Love
TTITLE6=Make Someone Happy
TTITLE7=(It’s Not Easy) Bein’ Green
TTITLE8=Rest (Stay)
TTITLE9=Fever
TTITLE10=Undun
TTITLE11=It Might As Well Be Spring
TTITLE12=Eli, Eli (A Walk to Caesarea)
EXTD=YEAR: 2007
EXTT0=
EXTT1=
EXTT2=
EXTT3=
EXTT4=
EXTT5=
EXTT6=
EXTT7=
EXTT8=
EXTT9=
EXTT10=
EXTT11=
EXTT12=
PLAYORDER=
